<svg xmlns="http://www.w3.org/2000/svg" width="48" height="48" fill="currentColor"><path fill="url(#a)" fill-rule="evenodd" d="M9 13.5a1.5 1.5 0 0 1 3 0V17h23v-3.5a1.5 1.5 0 0 1 3 0v11.723a8.964 8.964 0 0 0-1-.168V13.5a.5.5 0 0 0-1 0V25c-.338 0-.672.019-1 .055V18H12v12h15.936c-.16.323-.302.657-.424 1H12v3.5a1.5 1.5 0 0 1-3 0v-21Zm2 0v21a.5.5 0 0 1-1 0v-21a.5.5 0 0 1 1 0Z" clip-rule="evenodd"/><path fill="url(#b)" fill-rule="evenodd" d="M44 34a8 8 0 1 1-16 0 8 8 0 0 1 16 0Zm-8-5a.5.5 0 0 1 .5.5v4h4a.5.5 0 0 1 0 1h-4v4a.5.5 0 0 1-1 0v-4h-4a.5.5 0 0 1 0-1h4v-4a.5.5 0 0 1 .5-.5Z" clip-rule="evenodd"/><defs><linearGradient id="a" x1="9" x2="38.647" y1="12" y2="46.588" gradientUnits="userSpaceOnUse"><stop stop-color="#209782"/><stop offset="1" stop-color="#0C695A"/></linearGradient><linearGradient id="b" x1="9" x2="38.647" y1="12" y2="46.588" gradientUnits="userSpaceOnUse"><stop stop-color="#209782"/><stop offset="1" stop-color="#0C695A"/></linearGradient></defs></svg>