<svg xmlns="http://www.w3.org/2000/svg" width="48" height="48" fill="currentColor"><path fill="url(#a)" d="M3.001 13a5 5 0 0 1 5-5h32a5 5 0 0 1 5 5v22a5 5 0 0 1-5 5h-32a5 5 0 0 1-5-5V13Z"/><path fill="url(#b)" fill-opacity=".2" d="M3.001 13a5 5 0 0 1 5-5h32a5 5 0 0 1 5 5v22a5 5 0 0 1-5 5h-32a5 5 0 0 1-5-5V13Z"/><path fill="url(#c)" fill-rule="evenodd" d="M40.001 9h-32a4 4 0 0 0-4 4v22a4 4 0 0 0 4 4h32a4 4 0 0 0 4-4V13a4 4 0 0 0-4-4Zm-32-1a5 5 0 0 0-5 5v22a5 5 0 0 0 5 5h32a5 5 0 0 0 5-5V13a5 5 0 0 0-5-5h-32Z" clip-rule="evenodd"/><path fill="url(#d)" d="M20.75 26.5a1.25 1.25 0 1 1-2.5 0 1.25 1.25 0 0 1 2.5 0Z"/><path fill="url(#e)" d="M25.25 26.5a1.25 1.25 0 1 1-2.5 0 1.25 1.25 0 0 1 2.5 0Z"/><path fill="url(#f)" d="M29.75 26.5a1.25 1.25 0 1 1-2.5 0 1.25 1.25 0 0 1 2.5 0Z"/><path fill="url(#g)" fill-rule="evenodd" d="M16.941 16a1 1 0 0 0-.737.324l-3.667 4c-.588.642-.133 1.676.737 1.676h1.727v8a2 2 0 0 0 2 2h14a2 2 0 0 0 2-2v-8h1.727c.87 0 1.325-1.034.737-1.676l-3.667-4a1 1 0 0 0-.737-.324h-14.12Zm15.06 6h-16v8a1 1 0 0 0 1 1h14a1 1 0 0 0 1-1v-8Z" clip-rule="evenodd"/><path fill="#F5F5F5" d="M25.999 38.5a6.5 6.5 0 0 1 6.5-6.5h9a6.5 6.5 0 1 1 0 13h-9a6.5 6.5 0 0 1-6.5-6.5Z"/><path fill="url(#h)" d="M26.999 38.5a5.5 5.5 0 0 1 5.5-5.5h2a.5.5 0 1 1 0 1h-2a4.5 4.5 0 1 0 0 9h2a.5.5 0 1 1 0 1h-2a5.5 5.5 0 0 1-5.5-5.5Z"/><path fill="url(#i)" d="M46.999 38.5a5.5 5.5 0 0 1-5.5 5.5h-2a.5.5 0 0 1 0-1h2a4.5 4.5 0 1 0 0-9h-2a.5.5 0 0 1 0-1h2a5.5 5.5 0 0 1 5.5 5.5Z"/><path fill="url(#j)" d="M33.499 37.979a.5.5 0 0 0 0 1h7.594a.5.5 0 0 0 0-1h-7.594Z"/><defs><linearGradient id="a" x1="14.668" x2="17.772" y1="8" y2="40.593" gradientUnits="userSpaceOnUse"><stop stop-color="#fff"/><stop offset="1" stop-color="#EBEBEB"/></linearGradient><linearGradient id="c" x1="16.564" x2="19.87" y1="8" y2="40.553" gradientUnits="userSpaceOnUse"><stop stop-color="#BBB"/><stop offset="1" stop-color="#888"/></linearGradient><linearGradient id="d" x1="12.273" x2="27.169" y1="16" y2="37.839" gradientUnits="userSpaceOnUse"><stop stop-color="#7751B8"/><stop offset="1" stop-color="#5A409C"/></linearGradient><linearGradient id="e" x1="12.273" x2="27.169" y1="16" y2="37.839" gradientUnits="userSpaceOnUse"><stop stop-color="#7751B8"/><stop offset="1" stop-color="#5A409C"/></linearGradient><linearGradient id="f" x1="12.273" x2="27.169" y1="16" y2="37.839" gradientUnits="userSpaceOnUse"><stop stop-color="#7751B8"/><stop offset="1" stop-color="#5A409C"/></linearGradient><linearGradient id="g" x1="12.273" x2="27.169" y1="16" y2="37.839" gradientUnits="userSpaceOnUse"><stop stop-color="#7751B8"/><stop offset="1" stop-color="#5A409C"/></linearGradient><linearGradient id="h" x1="26.999" x2="36.289" y1="33" y2="49.891" gradientUnits="userSpaceOnUse"><stop stop-color="#7751B8"/><stop offset="1" stop-color="#5A409C"/></linearGradient><linearGradient id="i" x1="26.999" x2="36.289" y1="33" y2="49.891" gradientUnits="userSpaceOnUse"><stop stop-color="#7751B8"/><stop offset="1" stop-color="#5A409C"/></linearGradient><linearGradient id="j" x1="26.999" x2="36.289" y1="33" y2="49.891" gradientUnits="userSpaceOnUse"><stop stop-color="#7751B8"/><stop offset="1" stop-color="#5A409C"/></linearGradient><radialGradient id="b" cx="0" cy="0" r="1" gradientTransform="rotate(48.814 -9.789 26.257) scale(33.6621 31.279)" gradientUnits="userSpaceOnUse"><stop offset=".177" stop-color="#fff"/><stop offset="1" stop-color="#B8B8B8"/></radialGradient></defs></svg>