<svg xmlns="http://www.w3.org/2000/svg" width="40" height="40" fill="currentColor"><path fill="url(#a)" d="M4 8a4 4 0 0 1 4-4h24a4 4 0 0 1 4 4v24a4 4 0 0 1-4 4H8a4 4 0 0 1-4-4V8Z"/><path fill="url(#b)" fill-opacity=".2" d="M4 8a4 4 0 0 1 4-4h24a4 4 0 0 1 4 4v24a4 4 0 0 1-4 4H8a4 4 0 0 1-4-4V8Z"/><path fill="url(#c)" fill-rule="evenodd" d="M32 5H8a3 3 0 0 0-3 3v24a3 3 0 0 0 3 3h24a3 3 0 0 0 3-3V8a3 3 0 0 0-3-3ZM8 4a4 4 0 0 0-4 4v24a4 4 0 0 0 4 4h24a4 4 0 0 0 4-4V8a4 4 0 0 0-4-4H8Z" clip-rule="evenodd"/><path fill="url(#d)" d="M12 18.25a2 2 0 1 0 0-4 2 2 0 0 0 0 4Z"/><path fill="url(#e)" d="M20 18.25a2 2 0 1 0 0-4 2 2 0 0 0 0 4Z"/><path fill="url(#f)" d="M30 16.25a2 2 0 1 1-4 0 2 2 0 0 1 4 0Z"/><path fill="url(#g)" d="M20 26.25a2 2 0 1 0 0-4 2 2 0 0 0 0 4Z"/><path fill="url(#h)" d="M14 24.25a2 2 0 1 1-4 0 2 2 0 0 1 4 0Z"/><path fill="#F5F5F5" d="M35 29h-6a5 5 0 0 0 0 10h6a5 5 0 0 0 0-10Z"/><path fill="url(#i)" d="M29 31a3 3 0 1 0 0 6h1.5a.5.5 0 0 1 0 1H29a4 4 0 0 1 0-8h1.5a.5.5 0 0 1 0 1H29Z"/><path fill="url(#j)" d="M35 37a3 3 0 1 0 0-6h-1.5a.5.5 0 0 1 0-1H35a4 4 0 0 1 0 8h-1.5a.5.5 0 0 1 0-1H35Z"/><path fill="url(#k)" d="M29.5 33.5a.5.5 0 0 0 0 1h5a.5.5 0 0 0 0-1h-5Z"/><defs><linearGradient id="a" x1="12.889" x2="16.937" y1="4" y2="36.383" gradientUnits="userSpaceOnUse"><stop stop-color="#fff"/><stop offset="1" stop-color="#EBEBEB"/></linearGradient><linearGradient id="c" x1="14.333" x2="18.642" y1="4" y2="36.314" gradientUnits="userSpaceOnUse"><stop stop-color="#BBB"/><stop offset="1" stop-color="#888"/></linearGradient><linearGradient id="d" x1="10" x2="20.588" y1="14.25" y2="31.897" gradientUnits="userSpaceOnUse"><stop stop-color="#7751B8"/><stop offset="1" stop-color="#5A409C"/></linearGradient><linearGradient id="e" x1="10" x2="20.588" y1="14.25" y2="31.897" gradientUnits="userSpaceOnUse"><stop stop-color="#7751B8"/><stop offset="1" stop-color="#5A409C"/></linearGradient><linearGradient id="f" x1="10" x2="20.588" y1="14.25" y2="31.897" gradientUnits="userSpaceOnUse"><stop stop-color="#7751B8"/><stop offset="1" stop-color="#5A409C"/></linearGradient><linearGradient id="g" x1="10" x2="20.588" y1="14.25" y2="31.897" gradientUnits="userSpaceOnUse"><stop stop-color="#7751B8"/><stop offset="1" stop-color="#5A409C"/></linearGradient><linearGradient id="h" x1="10" x2="20.588" y1="14.25" y2="31.897" gradientUnits="userSpaceOnUse"><stop stop-color="#7751B8"/><stop offset="1" stop-color="#5A409C"/></linearGradient><linearGradient id="i" x1="25" x2="31.892" y1="30" y2="42.062" gradientUnits="userSpaceOnUse"><stop stop-color="#7751B8"/><stop offset="1" stop-color="#5A409C"/></linearGradient><linearGradient id="j" x1="25" x2="31.892" y1="30" y2="42.062" gradientUnits="userSpaceOnUse"><stop stop-color="#7751B8"/><stop offset="1" stop-color="#5A409C"/></linearGradient><linearGradient id="k" x1="25" x2="31.892" y1="30" y2="42.062" gradientUnits="userSpaceOnUse"><stop stop-color="#7751B8"/><stop offset="1" stop-color="#5A409C"/></linearGradient><radialGradient id="b" cx="0" cy="0" r="1" gradientTransform="rotate(56.31 -4.411 19.454) scale(30.4469 26.3483)" gradientUnits="userSpaceOnUse"><stop offset=".177" stop-color="#fff"/><stop offset="1" stop-color="#B8B8B8"/></radialGradient></defs></svg>