<svg xmlns="http://www.w3.org/2000/svg" width="40" height="40" fill="currentColor"><path fill="url(#a)" d="M6 7a3 3 0 0 1 3-3h18a3 3 0 0 1 3 3v14c-.338 0-.672.019-1 .055V7a2 2 0 0 0-2-2H9a2 2 0 0 0-2 2v26a2 2 0 0 0 2 2h13.515c.236.352.495.686.777 1H9a3 3 0 0 1-3-3V7Z"/><path fill="url(#b)" d="M31 21.055a8.946 8.946 0 0 1 2.474.64.751.751 0 0 0 .026-.195v-3a.75.75 0 0 0-.75-.75H31v3.305Z"/><path fill="url(#c)" d="M20.233 9.378a.5.5 0 0 0-.966-.256l-3.25 12.25a.5.5 0 0 0 .966.256l3.25-12.25Z"/><path fill="url(#d)" d="M14.353 11.146a.5.5 0 0 1 0 .708L11.207 15l3.146 3.146a.5.5 0 0 1-.707.708l-3.43-3.43a.6.6 0 0 1 0-.848l3.43-3.43a.5.5 0 0 1 .707 0Z"/><path fill="url(#e)" d="M21.778 11.146a.5.5 0 0 0 0 .708L24.924 15l-3.146 3.146a.5.5 0 0 0 .707.708l3.43-3.43a.6.6 0 0 0 0-.848l-3.43-3.43a.5.5 0 0 0-.707 0Z"/><path fill="url(#f)" d="M32.75 10.094H31v4.5h1.75a.75.75 0 0 0 .75-.75v-3a.75.75 0 0 0-.75-.75Z"/><path fill="url(#g)" fill-rule="evenodd" d="M30 38a8 8 0 1 0 0-16 8 8 0 0 0 0 16Zm.5-12.5a.5.5 0 0 0-1 0v4h-4a.5.5 0 0 0 0 1h4v4a.5.5 0 0 0 1 0v-4h4a.5.5 0 0 0 0-1h-4v-4Z" clip-rule="evenodd"/><defs><linearGradient id="a" x1="6" x2="39.938" y1="4" y2="35.941" gradientUnits="userSpaceOnUse"><stop stop-color="#209782"/><stop offset="1" stop-color="#0C695A"/></linearGradient><linearGradient id="b" x1="6" x2="39.938" y1="4" y2="35.941" gradientUnits="userSpaceOnUse"><stop stop-color="#209782"/><stop offset="1" stop-color="#0C695A"/></linearGradient><linearGradient id="c" x1="6" x2="39.938" y1="4" y2="35.941" gradientUnits="userSpaceOnUse"><stop stop-color="#209782"/><stop offset="1" stop-color="#0C695A"/></linearGradient><linearGradient id="d" x1="6" x2="39.938" y1="4" y2="35.941" gradientUnits="userSpaceOnUse"><stop stop-color="#209782"/><stop offset="1" stop-color="#0C695A"/></linearGradient><linearGradient id="e" x1="6" x2="39.938" y1="4" y2="35.941" gradientUnits="userSpaceOnUse"><stop stop-color="#209782"/><stop offset="1" stop-color="#0C695A"/></linearGradient><linearGradient id="f" x1="6" x2="39.938" y1="4" y2="35.941" gradientUnits="userSpaceOnUse"><stop stop-color="#209782"/><stop offset="1" stop-color="#0C695A"/></linearGradient><linearGradient id="g" x1="6" x2="39.938" y1="4" y2="35.941" gradientUnits="userSpaceOnUse"><stop stop-color="#209782"/><stop offset="1" stop-color="#0C695A"/></linearGradient></defs></svg>