<svg xmlns="http://www.w3.org/2000/svg" width="40" height="40" fill="currentColor"><path fill="url(#a)" d="M12 5.5h19A3.5 3.5 0 0 1 34.5 9v22a6.5 6.5 0 0 1-6.5 6.5H12A3.5 3.5 0 0 1 8.5 34V9A3.5 3.5 0 0 1 12 5.5Z"/><path fill="url(#b)" fill-opacity=".2" d="M12 5.5h19A3.5 3.5 0 0 1 34.5 9v22a6.5 6.5 0 0 1-6.5 6.5H12A3.5 3.5 0 0 1 8.5 34V9A3.5 3.5 0 0 1 12 5.5Z"/><path stroke="currentColor" d="M12 5.5h19A3.5 3.5 0 0 1 34.5 9v22a6.5 6.5 0 0 1-6.5 6.5H12A3.5 3.5 0 0 1 8.5 34V9A3.5 3.5 0 0 1 12 5.5Z"/><path fill="url(#c)" d="M9 2.5h19A3.5 3.5 0 0 1 31.5 6v25a3.5 3.5 0 0 1-3.5 3.5H9A3.5 3.5 0 0 1 5.5 31V6A3.5 3.5 0 0 1 9 2.5Z"/><path fill="url(#d)" fill-opacity=".2" d="M9 2.5h19A3.5 3.5 0 0 1 31.5 6v25a3.5 3.5 0 0 1-3.5 3.5H9A3.5 3.5 0 0 1 5.5 31V6A3.5 3.5 0 0 1 9 2.5Z"/><path stroke="currentColor" d="M9 2.5h19A3.5 3.5 0 0 1 31.5 6v25a3.5 3.5 0 0 1-3.5 3.5H9A3.5 3.5 0 0 1 5.5 31V6A3.5 3.5 0 0 1 9 2.5Z"/><path fill="#F5F5F5" fill-rule="evenodd" d="M26.156 36.664a1.5 1.5 0 1 0 2.121 2.122l.624-.624a1.5 1.5 0 0 0 2.558.977l2.121-2.12c.227-.227.366-.508.417-.8l1.456 1.42c.95.926 2.547.253 2.547-1.075V28.5a1.5 1.5 0 0 0-1.5-1.5h-8.27c-1.346 0-2.011 1.635-1.048 2.574l1.43 1.395a1.494 1.494 0 0 0-.688.392l-2.121 2.122a1.5 1.5 0 0 0 .976 2.558l-.623.623Z" clip-rule="evenodd"/><path fill="url(#e)" d="M37 28.5a.5.5 0 0 0-.5-.5h-8.271a.5.5 0 0 0-.35.858l8.272 8.064a.5.5 0 0 0 .849-.358V28.5Z"/><path fill="url(#f)" d="M31.105 34.543a.5.5 0 1 0-.707-.707l-3.535 3.535a.5.5 0 1 0 .707.707l3.535-3.535Z"/><path fill="url(#g)" d="m26.51 34.19 2.12-2.122a.5.5 0 0 1 .708.707l-2.122 2.122a.5.5 0 1 1-.707-.707Z"/><path fill="url(#h)" d="m32.166 35.604-2.121 2.121a.5.5 0 1 0 .707.707l2.12-2.12a.5.5 0 1 0-.706-.708Z"/><defs><linearGradient id="a" x1="15.5" x2="20.564" y1="5" y2="38.143" gradientUnits="userSpaceOnUse"><stop stop-color="#fff"/><stop offset="1" stop-color="#EBEBEB"/></linearGradient><linearGradient id="c" x1="12.5" x2="17.564" y1="2" y2="35.143" gradientUnits="userSpaceOnUse"><stop stop-color="#fff"/><stop offset="1" stop-color="#EBEBEB"/></linearGradient><linearGradient id="e" x1="26.363" x2="36.942" y1="28" y2="38.637" gradientUnits="userSpaceOnUse"><stop stop-color="#4BA446"/><stop offset="1" stop-color="#3F7D35"/></linearGradient><linearGradient id="f" x1="26.363" x2="36.942" y1="28" y2="38.637" gradientUnits="userSpaceOnUse"><stop stop-color="#4BA446"/><stop offset="1" stop-color="#3F7D35"/></linearGradient><linearGradient id="g" x1="26.363" x2="36.942" y1="28" y2="38.637" gradientUnits="userSpaceOnUse"><stop stop-color="#4BA446"/><stop offset="1" stop-color="#3F7D35"/></linearGradient><linearGradient id="h" x1="26.363" x2="36.942" y1="28" y2="38.637" gradientUnits="userSpaceOnUse"><stop stop-color="#4BA446"/><stop offset="1" stop-color="#3F7D35"/></linearGradient><radialGradient id="b" cx="0" cy="0" r="1" gradientTransform="rotate(61.389 -3.137 20.8) scale(29.7587 23.4563)" gradientUnits="userSpaceOnUse"><stop offset=".177" stop-color="#fff"/><stop offset="1" stop-color="#B8B8B8"/></radialGradient><radialGradient id="d" cx="0" cy="0" r="1" gradientTransform="rotate(61.389 -2.11 16.773) scale(29.7587 23.4563)" gradientUnits="userSpaceOnUse"><stop offset=".177" stop-color="#fff"/><stop offset="1" stop-color="#B8B8B8"/></radialGradient></defs></svg>