<svg xmlns="http://www.w3.org/2000/svg" width="24" height="24" fill="currentColor"><path fill="url(#a)" d="M7 3.5h12A2.5 2.5 0 0 1 21.5 6v11.5a5 5 0 0 1-5 5H7A2.5 2.5 0 0 1 4.5 20V6A2.5 2.5 0 0 1 7 3.5Z"/><path fill="url(#b)" fill-opacity=".2" d="M7 3.5h12A2.5 2.5 0 0 1 21.5 6v11.5a5 5 0 0 1-5 5H7A2.5 2.5 0 0 1 4.5 20V6A2.5 2.5 0 0 1 7 3.5Z"/><path stroke="currentColor" d="M7 3.5h12A2.5 2.5 0 0 1 21.5 6v11.5a5 5 0 0 1-5 5H7A2.5 2.5 0 0 1 4.5 20V6A2.5 2.5 0 0 1 7 3.5Z"/><path fill="url(#c)" d="M5 1.5h12A2.5 2.5 0 0 1 19.5 4v14a2.5 2.5 0 0 1-2.5 2.5H5A2.5 2.5 0 0 1 2.5 18V4A2.5 2.5 0 0 1 5 1.5Z"/><path fill="url(#d)" fill-opacity=".2" d="M5 1.5h12A2.5 2.5 0 0 1 19.5 4v14a2.5 2.5 0 0 1-2.5 2.5H5A2.5 2.5 0 0 1 2.5 18V4A2.5 2.5 0 0 1 5 1.5Z"/><path stroke="currentColor" d="M5 1.5h12A2.5 2.5 0 0 1 19.5 4v14a2.5 2.5 0 0 1-2.5 2.5H5A2.5 2.5 0 0 1 2.5 18V4A2.5 2.5 0 0 1 5 1.5Z"/><path fill="url(#e)" d="M6 5a1 1 0 0 0-1 1v3a1 1 0 0 0 1 1h3a1 1 0 0 0 1-1V6a1 1 0 0 0-1-1H6Z"/><path fill="url(#f)" d="M12 6.5a.5.5 0 0 1 .5-.5h4a.5.5 0 0 1 0 1h-4a.5.5 0 0 1-.5-.5Z"/><path fill="url(#g)" d="M12 9.5a.5.5 0 0 1 .5-.5h4a.5.5 0 0 1 0 1h-4a.5.5 0 0 1-.5-.5Z"/><path fill="url(#h)" d="M5.5 12a.5.5 0 0 0 0 1h11a.5.5 0 0 0 0-1h-11Z"/><path fill="url(#i)" d="M5 15.5a.5.5 0 0 1 .5-.5h11a.5.5 0 0 1 0 1h-11a.5.5 0 0 1-.5-.5Z"/><defs><linearGradient id="a" x1="9" x2="11.801" y1="3" y2="23.166" gradientUnits="userSpaceOnUse"><stop stop-color="#fff"/><stop offset="1" stop-color="#EBEBEB"/></linearGradient><linearGradient id="c" x1="7" x2="9.801" y1="1" y2="21.166" gradientUnits="userSpaceOnUse"><stop stop-color="#fff"/><stop offset="1" stop-color="#EBEBEB"/></linearGradient><linearGradient id="e" x1="5" x2="15.959" y1="5" y2="16.955" gradientUnits="userSpaceOnUse"><stop stop-color="#C28400"/><stop offset="1" stop-color="#A86500"/></linearGradient><linearGradient id="f" x1="5" x2="15.959" y1="5" y2="16.955" gradientUnits="userSpaceOnUse"><stop stop-color="#C28400"/><stop offset="1" stop-color="#A86500"/></linearGradient><linearGradient id="g" x1="5" x2="15.959" y1="5" y2="16.955" gradientUnits="userSpaceOnUse"><stop stop-color="#C28400"/><stop offset="1" stop-color="#A86500"/></linearGradient><linearGradient id="h" x1="5" x2="15.959" y1="5" y2="16.955" gradientUnits="userSpaceOnUse"><stop stop-color="#C28400"/><stop offset="1" stop-color="#A86500"/></linearGradient><linearGradient id="i" x1="5" x2="15.959" y1="5" y2="16.955" gradientUnits="userSpaceOnUse"><stop stop-color="#C28400"/><stop offset="1" stop-color="#A86500"/></linearGradient><radialGradient id="b" cx="0" cy="0" r="1" gradientTransform="matrix(9.50002 15.83334 -13.09743 7.85847 9.75 8.208)" gradientUnits="userSpaceOnUse"><stop offset=".177" stop-color="#fff"/><stop offset="1" stop-color="#B8B8B8"/></radialGradient><radialGradient id="d" cx="0" cy="0" r="1" gradientTransform="matrix(9.50002 15.83334 -13.09743 7.85847 7.75 6.208)" gradientUnits="userSpaceOnUse"><stop offset=".177" stop-color="#fff"/><stop offset="1" stop-color="#B8B8B8"/></radialGradient></defs></svg>