<svg xmlns="http://www.w3.org/2000/svg" width="16" height="16" fill="currentColor"><path fill="url(#a)" d="M14 1.58v12.84c0 .32-.26.58-.58.58H9V1.58c0-.32.26-.58.58-.58h3.84c.32 0 .58.26.58.58Z"/><path fill="#000" fill-opacity=".25" d="M11 15V5.583c0-.598-.485-1.083-1.083-1.083H9v1h.917c.046 0 .083.037.083.083V15h1Z" opacity=".5"/><path fill="url(#b)" d="M10.5 5.083V15H6.08a.58.58 0 0 1-.58-.58V5.08c0-.32.26-.58.58-.58h3.837c.322 0 .583.261.583.583Z"/><path fill="url(#c)" d="M2 8.58v5.84c0 .32.26.58.58.58H7V8.583A.583.583 0 0 0 6.417 8H2.58a.58.58 0 0 0-.58.58Z"/><defs><linearGradient id="a" x1="8.167" x2="14.048" y1="1" y2="14.358" gradientUnits="userSpaceOnUse"><stop stop-color="#E6AD10"/><stop offset="1" stop-color="#C87E0E"/></linearGradient><linearGradient id="b" x1="5.5" x2="10.464" y1="4.5" y2="14.816" gradientUnits="userSpaceOnUse"><stop stop-color="#F6D751"/><stop offset="1" stop-color="#E6AD10"/></linearGradient><linearGradient id="c" x1="2" x2="4.722" y1="8" y2="14.913" gradientUnits="userSpaceOnUse"><stop stop-color="#F9E589"/><stop offset="1" stop-color="#F6D751"/></linearGradient></defs></svg>