<svg xmlns="http://www.w3.org/2000/svg" width="32" height="32" fill="currentColor"><path fill="url(#a)" d="M3 6.5A3.5 3.5 0 0 1 6.5 3h19A3.5 3.5 0 0 1 29 6.5v19a3.5 3.5 0 0 1-3.5 3.5h-19A3.5 3.5 0 0 1 3 25.5v-19Z"/><path fill="url(#b)" fill-opacity=".2" d="M3 6.5A3.5 3.5 0 0 1 6.5 3h19A3.5 3.5 0 0 1 29 6.5v19a3.5 3.5 0 0 1-3.5 3.5h-19A3.5 3.5 0 0 1 3 25.5v-19Z"/><path fill="url(#c)" fill-rule="evenodd" d="M25.5 4h-19A2.5 2.5 0 0 0 4 6.5v19A2.5 2.5 0 0 0 6.5 28h19a2.5 2.5 0 0 0 2.5-2.5v-19A2.5 2.5 0 0 0 25.5 4Zm-19-1A3.5 3.5 0 0 0 3 6.5v19A3.5 3.5 0 0 0 6.5 29h19a3.5 3.5 0 0 0 3.5-3.5v-19A3.5 3.5 0 0 0 25.5 3h-19Z" clip-rule="evenodd"/><path fill="url(#d)" d="M12 11h-.503a1.5 1.5 0 0 0-1.5 1.5v1c0 1.252.922 2.288 2.122 2.471A4.004 4.004 0 0 0 15.5 18.97V20H14a2 2 0 0 0-2 2v.503a.5.5 0 0 0 .5.5h7a.5.5 0 0 0 .5-.5V22a2 2 0 0 0-2-2h-1.5v-1.03a4.004 4.004 0 0 0 3.381-2.999A2.501 2.501 0 0 0 22 13.5v-1a1.5 1.5 0 0 0-1.5-1.5H20a2 2 0 0 0-2-2h-4a2 2 0 0 0-2 2Zm8 1h.5a.5.5 0 0 1 .5.5v1a1.5 1.5 0 0 1-1 1.414V12Zm-8 0v2.915a1.502 1.502 0 0 1-1.003-1.415v-1a.5.5 0 0 1 .5-.5H12Z"/><defs><linearGradient id="a" x1="10.222" x2="13.511" y1="3" y2="29.311" gradientUnits="userSpaceOnUse"><stop stop-color="#fff"/><stop offset="1" stop-color="#EBEBEB"/></linearGradient><linearGradient id="c" x1="11.396" x2="14.897" y1="3" y2="29.256" gradientUnits="userSpaceOnUse"><stop stop-color="#BBB"/><stop offset="1" stop-color="#888"/></linearGradient><linearGradient id="d" x1="9.997" x2="23.836" y1="9" y2="20.862" gradientUnits="userSpaceOnUse"><stop stop-color="#C28400"/><stop offset="1" stop-color="#A86500"/></linearGradient><radialGradient id="b" cx="0" cy="0" r="1" gradientTransform="rotate(56.31 -3.476 15.448) scale(24.7381 21.408)" gradientUnits="userSpaceOnUse"><stop offset=".177" stop-color="#fff"/><stop offset="1" stop-color="#B8B8B8"/></radialGradient></defs></svg>