<svg xmlns="http://www.w3.org/2000/svg" width="16" height="17" fill="currentColor"><path d="M2.267 6.653A5.986 5.986 0 0 1 3.53 4.48a.355.355 0 0 1 .382-.095l1.36.484a.71.71 0 0 0 .935-.538l.26-1.416a.354.354 0 0 1 .274-.282 6.072 6.072 0 0 1 2.52 0c.14.03.248.141.274.282l.26 1.416a.708.708 0 0 0 .935.538l1.36-.484a.355.355 0 0 1 .382.095c.51.562.909 1.214 1.174 1.923A2.999 2.999 0 0 0 8.901 7a1.75 1.75 0 1 0 0 3c.106.183.231.354.372.51A2.5 2.5 0 0 0 7 13c0 .499.112 1 .348 1.463a6.07 6.07 0 0 1-.608-.096.354.354 0 0 1-.275-.282l-.259-1.416a.708.708 0 0 0-.935-.538l-1.36.484a.355.355 0 0 1-.382-.095 5.987 5.987 0 0 1-1.262-2.173.352.352 0 0 1 .108-.378l1.102-.931a.704.704 0 0 0 0-1.076l-1.102-.931a.352.352 0 0 1-.108-.378Z"/><path d="M13.5 8.5a2 2 0 1 1-4 0 2 2 0 0 1 4 0ZM15 13c0 1.245-1 2.5-3.5 2.5S8 14.25 8 13a1.5 1.5 0 0 1 1.5-1.5h4A1.5 1.5 0 0 1 15 13Z"/></svg>