<svg xmlns="http://www.w3.org/2000/svg" width="20" height="20" fill="currentColor"><g clip-path="url(#a)"><mask id="b" width="20" height="20" x="0" y="0" maskUnits="userSpaceOnUse" style="mask-type:luminance"><path fill="#fff" d="M20 0H0v20h20V0Z"/></mask><g mask="url(#b)"><path fill="url(#c)" d="M2 4.5A2.5 2.5 0 0 1 4.5 2h11A2.5 2.5 0 0 1 18 4.5v11a2.5 2.5 0 0 1-2.5 2.5h-11A2.5 2.5 0 0 1 2 15.5v-11Z"/><path fill="url(#d)" fill-opacity=".2" d="M2 4.5A2.5 2.5 0 0 1 4.5 2h11A2.5 2.5 0 0 1 18 4.5v11a2.5 2.5 0 0 1-2.5 2.5h-11A2.5 2.5 0 0 1 2 15.5v-11Z"/><path fill="url(#e)" fill-rule="evenodd" d="M15.5 3h-11A1.5 1.5 0 0 0 3 4.5v11A1.5 1.5 0 0 0 4.5 17h11a1.5 1.5 0 0 0 1.5-1.5v-11A1.5 1.5 0 0 0 15.5 3Zm-11-1A2.5 2.5 0 0 0 2 4.5v11A2.5 2.5 0 0 0 4.5 18h11a2.5 2.5 0 0 0 2.5-2.5v-11A2.5 2.5 0 0 0 15.5 2h-11Z" clip-rule="evenodd"/><path fill="url(#f)" d="M6 9a1 1 0 1 0 0-2 1 1 0 0 0 0 2Z"/><path fill="url(#g)" d="M10 9a1 1 0 1 0 0-2 1 1 0 0 0 0 2Z"/><path fill="url(#h)" d="M15 8a1 1 0 1 1-2 0 1 1 0 0 1 2 0Z"/><path fill="url(#i)" d="M10 13a1 1 0 1 0 0-2 1 1 0 0 0 0 2Z"/><path fill="url(#j)" d="M7 12a1 1 0 1 1-2 0 1 1 0 0 1 2 0Z"/><path fill="#F5F5F5" fill-rule="evenodd" d="M13.32 14.01a3 3 0 1 1 4.454 0 2.5 2.5 0 0 1 2.273 2.49 3.2 3.2 0 0 1-1.172 2.485c-.792.66-1.918 1.015-3.328 1.015s-2.535-.353-3.328-1.013a3.199 3.199 0 0 1-1.172-2.487 2.5 2.5 0 0 1 2.273-2.49Z" clip-rule="evenodd"/><path fill="url(#k)" d="M15.547 14a2 2 0 1 0 0-4 2 2 0 0 0 0 4Zm0 5c2.5 0 3.5-1.255 3.5-2.5a1.5 1.5 0 0 0-1.5-1.5h-4a1.5 1.5 0 0 0-1.5 1.5c0 1.25 1 2.5 3.5 2.5Z"/></g></g><defs><linearGradient id="c" x1="6.444" x2="8.468" y1="2" y2="18.192" gradientUnits="userSpaceOnUse"><stop stop-color="#fff"/><stop offset="1" stop-color="#EBEBEB"/></linearGradient><linearGradient id="e" x1="7.167" x2="9.321" y1="2" y2="18.157" gradientUnits="userSpaceOnUse"><stop stop-color="#BBB"/><stop offset="1" stop-color="#888"/></linearGradient><linearGradient id="f" x1="5" x2="10.294" y1="7" y2="15.823" gradientUnits="userSpaceOnUse"><stop stop-color="#7751B8"/><stop offset="1" stop-color="#5A409C"/></linearGradient><linearGradient id="g" x1="5" x2="10.294" y1="7" y2="15.823" gradientUnits="userSpaceOnUse"><stop stop-color="#7751B8"/><stop offset="1" stop-color="#5A409C"/></linearGradient><linearGradient id="h" x1="5" x2="10.294" y1="7" y2="15.823" gradientUnits="userSpaceOnUse"><stop stop-color="#7751B8"/><stop offset="1" stop-color="#5A409C"/></linearGradient><linearGradient id="i" x1="5" x2="10.294" y1="7" y2="15.823" gradientUnits="userSpaceOnUse"><stop stop-color="#7751B8"/><stop offset="1" stop-color="#5A409C"/></linearGradient><linearGradient id="j" x1="5" x2="10.294" y1="7" y2="15.823" gradientUnits="userSpaceOnUse"><stop stop-color="#7751B8"/><stop offset="1" stop-color="#5A409C"/></linearGradient><linearGradient id="k" x1="12.047" x2="20.77" y1="10" y2="16.785" gradientUnits="userSpaceOnUse"><stop stop-color="#7751B8"/><stop offset="1" stop-color="#5A409C"/></linearGradient><radialGradient id="d" cx="0" cy="0" r="1" gradientTransform="rotate(56.31 -2.206 9.727) scale(15.2234 13.1741)" gradientUnits="userSpaceOnUse"><stop offset=".177" stop-color="#fff"/><stop offset="1" stop-color="#B8B8B8"/></radialGradient><clipPath id="a"><path fill="#fff" d="M0 0h20v20H0z"/></clipPath></defs></svg>