<svg xmlns="http://www.w3.org/2000/svg" width="20" height="20" fill="currentColor"><g clip-path="url(#a)"><mask id="b" width="20" height="20" x="0" y="0" maskUnits="userSpaceOnUse" style="mask-type:luminance"><path fill="#fff" d="M20 0H0v20h20V0Z"/></mask><g mask="url(#b)"><path fill="url(#c)" d="M2 4.5A2.5 2.5 0 0 1 4.5 2h11A2.5 2.5 0 0 1 18 4.5v11a2.5 2.5 0 0 1-2.5 2.5h-11A2.5 2.5 0 0 1 2 15.5v-11Z"/><path fill="url(#d)" fill-opacity=".2" d="M2 4.5A2.5 2.5 0 0 1 4.5 2h11A2.5 2.5 0 0 1 18 4.5v11a2.5 2.5 0 0 1-2.5 2.5h-11A2.5 2.5 0 0 1 2 15.5v-11Z"/><path fill="url(#e)" fill-rule="evenodd" d="M15.5 3h-11A1.5 1.5 0 0 0 3 4.5v11A1.5 1.5 0 0 0 4.5 17h11a1.5 1.5 0 0 0 1.5-1.5v-11A1.5 1.5 0 0 0 15.5 3Zm-11-1A2.5 2.5 0 0 0 2 4.5v11A2.5 2.5 0 0 0 4.5 18h11a2.5 2.5 0 0 0 2.5-2.5v-11A2.5 2.5 0 0 0 15.5 2h-11Z" clip-rule="evenodd"/><path fill="url(#f)" d="M10 9c1.193 0 2.317-.18 3.18-.503.283-.106.561-.237.812-.397L14 12.75c0 .775-.615 1.342-1.302 1.685-.716.358-1.67.565-2.698.565s-1.982-.207-2.699-.565C6.615 14.092 6 13.525 6 12.75l-.008-4.66c.255.165.539.298.828.407C7.683 8.82 8.807 9 10 9Z"/><path fill="url(#g)" d="M13.99 6.61A.579.579 0 0 0 14 6.5c0-.828-1.79-1.5-4-1.5s-4 .672-4 1.5a.578.578 0 0 0 .011.113C6.165 7.389 7.892 8 10 8c2.11 0 3.838-.613 3.99-1.39Z"/><path fill="#F5F5F5" d="M18.5 17H18v-2.5c0-.83-.67-1.5-1.5-1.5-.61 0-1.13.36-1.37.89-.57-.57-1.32-.88-2.12-.88-.73 0-1.42.26-1.97.74-.04-.03-.07-.07-.11-.1-.56-.43-1.24-.66-1.93-.66h-.31c-.26.01-.51.04-.75.11a2.59 2.59 0 0 0-1.56 1.3c-.16.31-.25.65-.28 1v.1c0 .55.19 1.06.55 1.47-.08.06-.15.13-.21.21-.52.64-.43 1.59.21 2.11.56.46 1.28.71 2.01.71h.17c.62 0 1.16-.16 1.61-.46.17-.12.33-.25.46-.41.57.56 1.31.87 2.11.87.41 0 .81-.08 1.18-.24.24.16.52.24.82.24.26 0 .52-.07.75-.2.22.13.48.2.75.2h2c.83 0 1.5-.67 1.5-1.5s-.67-1.5-1.5-1.5h-.01Z"/><path fill="url(#h)" d="M10.305 14.434a2.14 2.14 0 0 0-1.51-.436 1.58 1.58 0 0 0-1.694 1.468l-.001.017v.017c0 .578.364.936.692 1.136.307.186.657.285.85.339l.022.006.062.018c.2.056.387.108.54.201.14.085.192.166.192.3 0 .255-.085.341-.152.387-.1.069-.272.113-.506.113h-.022l-.021.002a1.171 1.171 0 0 1-.841-.26.5.5 0 1 0-.633.774c.432.353.982.526 1.538.484.32-.002.717-.06 1.049-.287.372-.254.588-.668.588-1.213 0-.582-.33-.945-.672-1.154-.28-.17-.606-.26-.792-.31l-.058-.017c-.208-.058-.44-.126-.624-.237-.163-.1-.207-.183-.212-.266a.581.581 0 0 1 .643-.519l.059.007.058-.007a1.14 1.14 0 0 1 .834.229.5.5 0 1 0 .611-.792Z"/><path fill="url(#i)" fill-rule="evenodd" d="M13 14a2 2 0 0 0-2 2v1a2 2 0 0 0 3.25 1.562l.45.338a.5.5 0 0 0 .6-.8l-.45-.338A2 2 0 0 0 15 17v-1a2 2 0 0 0-2-2Zm.3 2.6.693.52A.991.991 0 0 0 14 17v-1a1 1 0 0 0-2 0v1a1 1 0 0 0 1.393.92l-.693-.52a.5.5 0 0 1 .6-.8Z" clip-rule="evenodd"/><path fill="url(#j)" d="M16.996 14.5a.5.5 0 0 0-1 0v4a.5.5 0 0 0 .5.5h2a.5.5 0 0 0 0-1h-1.5v-3.5Z"/></g></g><defs><linearGradient id="c" x1="6.444" x2="8.468" y1="2" y2="18.192" gradientUnits="userSpaceOnUse"><stop stop-color="#fff"/><stop offset="1" stop-color="#EBEBEB"/></linearGradient><linearGradient id="e" x1="7.167" x2="9.321" y1="2" y2="18.157" gradientUnits="userSpaceOnUse"><stop stop-color="#BBB"/><stop offset="1" stop-color="#888"/></linearGradient><linearGradient id="f" x1="5.992" x2="15.75" y1="5" y2="12.815" gradientUnits="userSpaceOnUse"><stop stop-color="#008EE6"/><stop offset="1" stop-color="#006094"/></linearGradient><linearGradient id="g" x1="5.992" x2="15.75" y1="5" y2="12.815" gradientUnits="userSpaceOnUse"><stop stop-color="#008EE6"/><stop offset="1" stop-color="#006094"/></linearGradient><linearGradient id="h" x1="7.1" x2="10.694" y1="13.988" y2="22.509" gradientUnits="userSpaceOnUse"><stop stop-color="#008EE6"/><stop offset="1" stop-color="#006094"/></linearGradient><linearGradient id="i" x1="7.1" x2="10.694" y1="13.988" y2="22.509" gradientUnits="userSpaceOnUse"><stop stop-color="#008EE6"/><stop offset="1" stop-color="#006094"/></linearGradient><linearGradient id="j" x1="7.1" x2="10.694" y1="13.988" y2="22.509" gradientUnits="userSpaceOnUse"><stop stop-color="#008EE6"/><stop offset="1" stop-color="#006094"/></linearGradient><radialGradient id="d" cx="0" cy="0" r="1" gradientTransform="rotate(56.31 -2.206 9.727) scale(15.2234 13.1741)" gradientUnits="userSpaceOnUse"><stop offset=".177" stop-color="#fff"/><stop offset="1" stop-color="#B8B8B8"/></radialGradient><clipPath id="a"><path fill="#fff" d="M0 0h20v20H0z"/></clipPath></defs></svg>