<svg xmlns="http://www.w3.org/2000/svg" width="24" height="24" fill="currentColor" viewBox="0 0 24 24">
	<path fill="url(#a)" d="m11.694 14.652-1.566 5.769a1.25 1.25 0 0 0 2.125 1.18l9.306-10.558a1.662 1.662 0 0 1-1.23.545h-4.616c-1.92 0-3.54 1.3-4.02 3.07" />
	<path fill="url(#b)" d="M14.709 18.816c2.755-3.129 6.855-7.773 6.855-7.773a1.662 1.662 0 0 1-1.23.545h-4.615c-1.92 0-3.54 1.3-4.02 3.07l-1.13 4.158h4.14Z" />
	<path fill="url(#c)" d="M21.999 9.919c0-.92-.745-1.665-1.665-1.665H7.544l-3.876 4.164a1.664 1.664 0 1 0 0 3.33h10.056a1.664 1.664 0 0 1 1.24 2.774l6.05-6.864.54-.61h-.005c.28-.3.455-.695.455-1.134l-.005.005Z" />
	<path fill="url(#d)" d="m12.284 15.752 7.3-7.498H7.544l-3.876 4.164a1.664 1.664 0 1 0 0 3.33h8.616v.004Z" />
	<path fill="url(#e)" d="m12.299 9.348 1.565-5.768a1.25 1.25 0 0 0-2.125-1.18L2.433 12.958a1.662 1.662 0 0 1 1.23-.545h4.615c1.92 0 3.54-1.3 4.02-3.07" />
	<defs>
		<linearGradient id="a" x1="10.789" x2="18.171" y1="22.831" y2="10.042" gradientUnits="userSpaceOnUse">
			<stop offset=".28" stop-color="#0669B6" />
			<stop offset=".49" stop-color="#114A85" />
		</linearGradient>
		<linearGradient id="b" x1="16.064" x2="16.064" y1="18.746" y2="10.978" gradientUnits="userSpaceOnUse">
			<stop offset=".31" stop-opacity="0" />
			<stop offset=".56" stop-opacity=".4" />
		</linearGradient>
		<linearGradient id="c" x1="7.193" x2="16.882" y1="7.679" y2="16.399" gradientUnits="userSpaceOnUse">
			<stop stop-color="#0669B6" />
			<stop offset=".33" stop-color="#148DD9" />
			<stop offset=".95" stop-color="#3CC5EE" />
		</linearGradient>
		<linearGradient id="d" x1="13.274" x2="8.84" y1="15.692" y2="8.018" gradientUnits="userSpaceOnUse">
			<stop offset=".29" stop-opacity="0" />
			<stop offset=".42" stop-opacity=".05" />
			<stop offset=".64" stop-opacity=".1" />
			<stop offset=".87" stop-opacity=".3" />
		</linearGradient>
		<linearGradient id="e" x1="12.079" x2="6.129" y1="10.003" y2="6.568" gradientUnits="userSpaceOnUse">
			<stop stop-color="#A1ECFF" />
			<stop offset=".72" stop-color="#3CC5EE" />
		</linearGradient>
	</defs>
</svg>
