<svg xmlns="http://www.w3.org/2000/svg" width="20" height="20" fill="currentColor" viewBox="0 0 20 20">
	<path fill="url(#a)" d="M9.757 12.124 8.505 16.74a1 1 0 0 0 1.7.944l7.446-8.448a1.33 1.33 0 0 1-.985.436h-3.692a3.334 3.334 0 0 0-3.217 2.456" />
	<path fill="url(#b)" d="M12.17 15.456c2.204-2.504 5.485-6.22 5.485-6.22a1.33 1.33 0 0 1-.984.436h-3.693a3.334 3.334 0 0 0-3.217 2.456l-.904 3.328h3.313Z" />
	<path fill="url(#c)" d="M18.003 8.336c0-.736-.596-1.332-1.332-1.332H6.436l-3.1 3.332a1.332 1.332 0 1 0 0 2.664h8.045a1.332 1.332 0 0 1 .993 2.22l4.84-5.492.433-.488h-.004c.224-.24.364-.556.364-.908l-.004.004Z" />
	<path fill="url(#d)" d="m10.23 13.004 5.84-6H6.436l-3.1 3.332a1.332 1.332 0 1 0 0 2.664h6.893v.004Z" />
	<path fill="url(#e)" d="m10.241 7.88 1.253-4.616a1 1 0 0 0-1.7-.944l-7.446 8.448a1.33 1.33 0 0 1 .984-.436h3.693a3.334 3.334 0 0 0 3.216-2.456" />
	<defs>
		<linearGradient id="a" x1="9.033" x2="14.94" y1="18.668" y2="8.435" gradientUnits="userSpaceOnUse">
			<stop offset=".28" stop-color="#0669B6" />
			<stop offset=".49" stop-color="#114A85" />
		</linearGradient>
		<linearGradient id="b" x1="13.254" x2="13.254" y1="15.4" y2="9.184" gradientUnits="userSpaceOnUse">
			<stop offset=".31" stop-opacity="0" />
			<stop offset=".56" stop-opacity=".4" />
		</linearGradient>
		<linearGradient id="c" x1="6.156" x2="13.908" y1="6.544" y2="13.521" gradientUnits="userSpaceOnUse">
			<stop stop-color="#0669B6" />
			<stop offset=".33" stop-color="#148DD9" />
			<stop offset=".95" stop-color="#3CC5EE" />
		</linearGradient>
		<linearGradient id="d" x1="11.021" x2="7.474" y1="12.956" y2="6.815" gradientUnits="userSpaceOnUse">
			<stop offset=".29" stop-opacity="0" />
			<stop offset=".42" stop-opacity=".05" />
			<stop offset=".64" stop-opacity=".1" />
			<stop offset=".87" stop-opacity=".3" />
		</linearGradient>
		<linearGradient id="e" x1="10.065" x2="5.305" y1="8.404" y2="5.655" gradientUnits="userSpaceOnUse">
			<stop stop-color="#A1ECFF" />
			<stop offset=".72" stop-color="#3CC5EE" />
		</linearGradient>
	</defs>
</svg>
