<svg xmlns="http://www.w3.org/2000/svg" width="20" height="20" fill="none"><path fill="url(#a)" d="m9.348 17.827-6.18-3.534a.666.666 0 0 1 .01-1.16l4.12-2.357.852-.301 3.97 2.27-.786 3.92a1.333 1.333 0 0 1-1.986 1.162Z"/><path fill="url(#b)" d="m10.652 2.17 6.18 3.535a.666.666 0 0 1-.01 1.16l-4.12 2.357-.852.301-3.97-2.27.787-3.92a1.333 1.333 0 0 1 1.985-1.162Z"/><path fill="url(#c)" d="m9.342 2.174-5.84 3.34c-.399.23-.668.661-.668 1.155v2.703c0 .25.139.47.343.583l4.495 2.571a.667.667 0 0 0 .994-.58V3.332c0-.497.273-.93.676-1.16Z"/><path fill="url(#d)" d="m10.658 17.824 5.84-3.34c.399-.23.667-.662.667-1.155v-2.704a.665.665 0 0 0-.342-.582L12.327 7.47a.667.667 0 0 0-.994.58v8.614c0 .497-.272.93-.675 1.16Z"/><defs><linearGradient id="a" x1="5.128" x2="11.476" y1="16.88" y2="11.921" gradientUnits="userSpaceOnUse"><stop offset=".061" stop-color="#249BE2"/><stop offset=".35" stop-color="#1B75B4"/><stop offset=".634" stop-color="#13568E"/><stop offset=".783" stop-color="#114A80"/></linearGradient><linearGradient id="b" x1="15.9" x2="7.845" y1="3.421" y2="7.177" gradientUnits="userSpaceOnUse"><stop offset=".117" stop-color="#249BE2"/><stop offset=".295" stop-color="#218ED2"/><stop offset=".638" stop-color="#196DAB"/><stop offset=".963" stop-color="#114A80"/></linearGradient><linearGradient id="c" x1="9.096" x2="4.832" y1="2.059" y2="11.204" gradientUnits="userSpaceOnUse"><stop offset=".338" stop-color="#7CEAFF"/><stop offset=".67" stop-color="#4EC9F2"/><stop offset=".973" stop-color="#28ADE8"/></linearGradient><linearGradient id="d" x1="10.059" x2="17.05" y1="15.018" y2="8.027" gradientUnits="userSpaceOnUse"><stop offset=".027" stop-color="#28ADE8"/><stop offset=".301" stop-color="#4EC9F2"/><stop offset=".662" stop-color="#7CEAFF"/></linearGradient></defs></svg>