<svg xmlns="http://www.w3.org/2000/svg" width="32" height="32" fill="currentColor" viewBox="0 0 32 32">
	<path fill="url(#a)" d="m15.57 19.71-2.191 8.075a1.75 1.75 0 0 0 1.687 2.211c.51 0 .966-.217 1.288-.56L29.38 14.658a2.327 2.327 0 0 1-1.722.763h-6.461a5.833 5.833 0 0 0-5.628 4.296" />
	<path fill="url(#b)" d="M19.79 25.539c3.857-4.38 9.597-10.88 9.597-10.88a2.327 2.327 0 0 1-1.722.762h-6.46a5.833 5.833 0 0 0-5.629 4.296l-1.582 5.822h5.796Z" />
	<path fill="url(#c)" d="M29.996 13.083a2.33 2.33 0 0 0-2.33-2.33H9.758l-5.425 5.829a2.33 2.33 0 1 0 0 4.66h14.077a2.33 2.33 0 0 1 1.736 3.883l8.47-9.607.756-.854h-.007c.392-.42.637-.972.637-1.588l-.007.007Z" />
	<path fill="url(#d)" d="m16.395 21.249 10.22-10.496H9.76l-5.425 5.829a2.33 2.33 0 1 0 0 4.66h12.061v.007Z" />
	<path fill="url(#e)" d="m16.416 12.286 2.191-8.075A1.75 1.75 0 0 0 16.92 2a1.76 1.76 0 0 0-1.287.56L2.604 17.338a2.327 2.327 0 0 1 1.722-.763h6.461a5.833 5.833 0 0 0 5.628-4.296" />
	<defs>
		<linearGradient id="a" x1="14.303" x2="24.636" y1="31.158" y2="13.255" gradientUnits="userSpaceOnUse">
			<stop offset=".28" stop-color="#0669B6" />
			<stop offset=".49" stop-color="#114A85" />
		</linearGradient>
		<linearGradient id="b" x1="21.687" x2="21.687" y1="25.441" y2="14.567" gradientUnits="userSpaceOnUse">
			<stop offset=".31" stop-opacity="0" />
			<stop offset=".56" stop-opacity=".4" />
		</linearGradient>
		<linearGradient id="c" x1="9.269" x2="22.831" y1="9.948" y2="22.157" gradientUnits="userSpaceOnUse">
			<stop stop-color="#0669B6" />
			<stop offset=".33" stop-color="#148DD9" />
			<stop offset=".95" stop-color="#3CC5EE" />
		</linearGradient>
		<linearGradient id="d" x1="17.781" x2="11.576" y1="21.165" y2="10.422" gradientUnits="userSpaceOnUse">
			<stop offset=".29" stop-opacity="0" />
			<stop offset=".42" stop-opacity=".05" />
			<stop offset=".64" stop-opacity=".1" />
			<stop offset=".87" stop-opacity=".3" />
		</linearGradient>
		<linearGradient id="e" x1="16.108" x2="7.78" y1="13.203" y2="8.393" gradientUnits="userSpaceOnUse">
			<stop stop-color="#A1ECFF" />
			<stop offset=".72" stop-color="#3CC5EE" />
		</linearGradient>
	</defs>
</svg>
