<svg xmlns="http://www.w3.org/2000/svg" width="16" height="16" fill="currentColor" viewBox="0 0 16 16">
	<path fill="url(#a)" d="m7.782 9.855-1.096 4.037a.875.875 0 0 0 1.487.826l6.512-7.389a1.163 1.163 0 0 1-.86.381h-3.23c-1.344 0-2.478.91-2.813 2.148" />
	<path fill="url(#b)" d="M9.891 12.77c1.929-2.19 4.798-5.44 4.798-5.44a1.163 1.163 0 0 1-.86.38h-3.23c-1.344 0-2.478.91-2.814 2.148l-.79 2.911H9.89Z" />
	<path fill="url(#c)" d="M14.993 6.541c0-.644-.521-1.165-1.165-1.165h-8.95L2.164 8.29a1.165 1.165 0 1 0 0 2.33h7.037a1.165 1.165 0 0 1 .868 1.942l4.234-4.804.378-.426h-.004c.196-.21.319-.487.319-.795l-.004.004Z" />
	<path fill="url(#d)" d="m8.194 10.624 5.11-5.248H4.876L2.165 8.29a1.165 1.165 0 1 0 0 2.33h6.03v.004Z" />
	<path fill="url(#e)" d="M8.205 6.143 9.3 2.106a.875.875 0 0 0-1.487-.826L1.301 8.669c.213-.235.521-.382.86-.382h3.23c1.344 0 2.478-.91 2.814-2.148" />
	<defs>
		<linearGradient id="a" x1="7.148" x2="12.315" y1="15.579" y2="6.628" gradientUnits="userSpaceOnUse">
			<stop offset=".28" stop-color="#0669B6" />
			<stop offset=".49" stop-color="#114A85" />
		</linearGradient>
		<linearGradient id="b" x1="10.84" x2="10.84" y1="12.72" y2="7.284" gradientUnits="userSpaceOnUse">
			<stop offset=".31" stop-opacity="0" />
			<stop offset=".56" stop-opacity=".4" />
		</linearGradient>
		<linearGradient id="c" x1="4.632" x2="11.412" y1="4.974" y2="11.076" gradientUnits="userSpaceOnUse">
			<stop stop-color="#0669B6" />
			<stop offset=".33" stop-color="#148DD9" />
			<stop offset=".95" stop-color="#3CC5EE" />
		</linearGradient>
		<linearGradient id="d" x1="8.887" x2="5.784" y1="10.582" y2="5.211" gradientUnits="userSpaceOnUse">
			<stop offset=".29" stop-opacity="0" />
			<stop offset=".42" stop-opacity=".05" />
			<stop offset=".64" stop-opacity=".1" />
			<stop offset=".87" stop-opacity=".3" />
		</linearGradient>
		<linearGradient id="e" x1="8.051" x2="3.887" y1="6.601" y2="4.197" gradientUnits="userSpaceOnUse">
			<stop stop-color="#A1ECFF" />
			<stop offset=".72" stop-color="#3CC5EE" />
		</linearGradient>
	</defs>
</svg>
