<svg xmlns="http://www.w3.org/2000/svg" width="48" height="48" fill="currentColor" viewBox="0 0 48 48">
	<path fill="url(#a)" d="m23.385 29.304-3.13 11.537a2.5 2.5 0 0 0 2.41 3.16c.73 0 1.38-.31 1.84-.8l18.61-21.115c-.61.67-1.49 1.09-2.46 1.09h-9.23c-3.84 0-7.08 2.599-8.04 6.138" />
	<path fill="url(#b)" d="M29.415 37.632c5.51-6.258 13.71-15.546 13.71-15.546-.61.67-1.49 1.09-2.46 1.09h-9.23c-3.84 0-7.08 2.599-8.04 6.138l-2.26 8.318h8.28Z" />
	<path fill="url(#c)" d="M43.995 19.836c0-1.84-1.49-3.33-3.33-3.33h-25.58l-7.75 8.329a3.328 3.328 0 1 0 0 6.658h20.11a3.328 3.328 0 0 1 2.48 5.549l12.1-13.727 1.08-1.22h-.01c.56-.6.91-1.39.91-2.269l-.01.01Z" />
	<path fill="url(#d)" d="m24.565 31.503 14.6-14.996h-24.08l-7.75 8.328a3.328 3.328 0 1 0 0 6.658h17.23v.01Z" />
	<path fill="url(#e)" d="m24.595 18.696 3.13-11.537A2.5 2.5 0 0 0 25.315 4c-.73.001-1.38.31-1.84.8L4.865 25.916c.61-.67 1.49-1.09 2.46-1.09h9.23c3.84 0 7.08-2.6 8.04-6.139" />
	<defs>
		<linearGradient id="a" x1="21.575" x2="36.34" y1="45.66" y2="20.083" gradientUnits="userSpaceOnUse">
			<stop offset=".28" stop-color="#0669B6" />
			<stop offset=".49" stop-color="#114A85" />
		</linearGradient>
		<linearGradient id="b" x1="32.125" x2="32.125" y1="37.492" y2="21.956" gradientUnits="userSpaceOnUse">
			<stop offset=".31" stop-opacity="0" />
			<stop offset=".56" stop-opacity=".4" />
		</linearGradient>
		<linearGradient id="c" x1="14.385" x2="33.761" y1="15.357" y2="32.797" gradientUnits="userSpaceOnUse">
			<stop stop-color="#0669B6" />
			<stop offset=".33" stop-color="#148DD9" />
			<stop offset=".95" stop-color="#3CC5EE" />
		</linearGradient>
		<linearGradient id="d" x1="26.545" x2="17.678" y1="31.383" y2="16.035" gradientUnits="userSpaceOnUse">
			<stop offset=".29" stop-opacity="0" />
			<stop offset=".42" stop-opacity=".05" />
			<stop offset=".64" stop-opacity=".1" />
			<stop offset=".87" stop-opacity=".3" />
		</linearGradient>
		<linearGradient id="e" x1="24.155" x2="12.257" y1="20.006" y2="13.135" gradientUnits="userSpaceOnUse">
			<stop stop-color="#A1ECFF" />
			<stop offset=".72" stop-color="#3CC5EE" />
		</linearGradient>
	</defs>
</svg>
