<svg xmlns="http://www.w3.org/2000/svg" width="16" height="16" fill="currentColor"><path fill="url(#a)" d="M13.246 14.547c.965 0 1.75-.782 1.75-1.747V5.988a.575.575 0 0 0-.274-.492c-1.378-.853-4.8-2.963-6.423-3.965a.59.59 0 0 0-.609.01 5620.987 5620.987 0 0 1-6.41 3.955.584.584 0 0 0-.276.496v6.812c0 .964.784 1.747 1.75 1.747h10.495l-.003-.004Z"/><path fill="url(#b)" d="M1 8.89v3.91c0 .964.784 1.746 1.75 1.746h10.495c.966 0 1.75-.782 1.75-1.746V8.89H1Z"/><path fill="url(#c)" d="M2.75 14.547c-.966 0-1.75-.783-1.75-1.747V8.727c0-.213.115-.399.283-.5L5.94 5.352a.585.585 0 0 1 .616 0l4.657 2.875a.577.577 0 0 1 .283.5V12.8c0 .964.784 1.747 1.75 1.747H2.748Z"/><path fill="url(#d)" d="M2.75 14.547c-.966 0-1.75-.783-1.75-1.747V8.727c0-.213.115-.399.283-.5L5.94 5.352a.585.585 0 0 1 .616 0l4.657 2.875a.577.577 0 0 1 .283.5V12.8c0 .964.784 1.747 1.75 1.747H2.748Z"/><path fill="url(#e)" d="M11.496 12.8V8.89H1v3.91c0 .964.784 1.746 1.75 1.746h10.495c-.965 0-1.749-.782-1.749-1.746Z"/><path fill="url(#f)" d="M2.75 14.547c-.966 0-1.75-.783-1.75-1.747v-1.334c0-.21.112-.392.276-.496l2.915-1.8a.585.585 0 0 1 .616 0s1.588.982 2.91 1.796a.58.58 0 0 1 .28.496V12.8c0 .964.784 1.747 1.75 1.747H2.749Z"/><path fill="url(#g)" d="M8.288 13.764a1.737 1.737 0 0 1-.29-.961v-1.338a.58.58 0 0 0-.28-.496c-1.323-.814-2.911-1.796-2.911-1.796a.585.585 0 0 0-.616 0l-2.915 1.8a.584.584 0 0 0-.276.495v1.335c0 .356.108.688.29.964h6.998v-.003Z"/><defs><linearGradient id="a" x1="7.998" x2="7.998" y1="14.547" y2="1.447" gradientUnits="userSpaceOnUse"><stop stop-color="#114A85"/><stop offset=".67" stop-color="#028EDB"/></linearGradient><linearGradient id="b" x1="7.997" x2="7.997" y1="15.147" y2="9.492" gradientUnits="userSpaceOnUse"><stop stop-opacity=".2"/><stop offset=".55" stop-opacity="0"/></linearGradient><linearGradient id="c" x1="7.123" x2="7.123" y1="14.547" y2="5.265" gradientUnits="userSpaceOnUse"><stop offset=".31" stop-color="#0094E5"/><stop offset="1" stop-color="#40D8F9"/></linearGradient><linearGradient id="e" x1="7.123" x2="7.123" y1="14.546" y2="8.891" gradientUnits="userSpaceOnUse"><stop offset=".09" stop-opacity=".2"/><stop offset=".55" stop-opacity="0"/></linearGradient><linearGradient id="f" x1="5.373" x2="5.373" y1="14.55" y2="9.083" gradientUnits="userSpaceOnUse"><stop stop-color="#3CC5EE"/><stop offset="1" stop-color="#50E0FF"/></linearGradient><linearGradient id="g" x1="4.642" x2="4.642" y1="12.922" y2="8.241" gradientUnits="userSpaceOnUse"><stop stop-color="#A1ECFF" stop-opacity="0"/><stop offset=".9" stop-color="#A1ECFF" stop-opacity=".9"/></linearGradient><radialGradient id="d" cx="0" cy="0" r="1" gradientTransform="matrix(5.13963 0 0 5.13185 4.772 13.338)" gradientUnits="userSpaceOnUse"><stop stop-opacity=".3"/><stop offset="1" stop-opacity="0"/></radialGradient></defs></svg>